<?xml version="1.0" encoding="UTF-8" ?>
<!DOCTYPE svg PUBLIC "-//W3C//DTD SVG 1.1//EN" "http://www.w3.org/Graphics/SVG/1.1/DTD/svg11.dtd">
<svg width="200pt" height="200pt" viewBox="0 0 200 200" version="1.1" xmlns="http://www.w3.org/2000/svg">
<g id="#ffffffff">
<path fill="#ffffff" opacity="1.00" d=" M 7.02 16.95 C 6.93 13.76 9.83 10.90 13.02 11.02 C 49.92 10.97 86.83 11.02 123.73 11.00 C 127.50 13.60 131.01 16.59 134.95 18.93 C 153.28 19.11 171.62 18.92 189.96 19.02 C 193.21 18.88 196.14 21.85 195.98 25.10 C 196.01 64.73 196.02 104.37 195.98 144.01 C 196.11 147.25 193.16 150.15 189.92 149.98 C 131.97 150.01 74.01 150.01 16.06 149.98 C 12.83 150.14 9.89 147.25 10.02 144.01 C 9.95 131.80 10.06 119.59 9.97 107.38 C 8.41 105.99 6.85 104.26 7.02 102.00 C 6.99 73.65 6.98 45.30 7.02 16.95 Z" />
</g>
</svg>
