<?xml version="1.0" encoding="UTF-8" ?>
<!DOCTYPE svg PUBLIC "-//W3C//DTD SVG 1.1//EN" "http://www.w3.org/Graphics/SVG/1.1/DTD/svg11.dtd">
<svg width="200pt" height="200pt" viewBox="0 0 200 200" version="1.1" xmlns="http://www.w3.org/2000/svg">
<g id="#ffffffff">
<path fill="#ffffff" opacity="1.00" d=" M 14.88 18.88 C 17.42 17.69 20.30 18.04 23.02 17.99 C 51.67 18.02 80.33 17.98 108.98 18.01 C 112.60 17.88 115.79 20.09 117.77 22.98 C 139.87 23.04 161.97 22.97 184.06 23.01 C 189.36 22.89 194.10 27.64 193.99 32.93 C 194.03 77.96 193.98 122.99 194.01 168.02 C 193.95 170.73 194.32 173.62 193.11 176.15 C 191.56 179.65 187.87 182.07 184.03 181.99 C 129.99 182.01 75.96 182.01 21.92 181.99 C 16.62 182.13 11.85 177.35 12.01 172.04 C 11.97 147.81 12.04 123.57 11.98 99.33 C 10.34 97.25 8.89 94.84 9.01 92.09 C 8.99 70.73 8.99 49.38 9.01 28.02 C 8.94 24.15 11.37 20.45 14.88 18.88 Z" />
</g>
</svg>
