<?xml version="1.0" encoding="UTF-8" ?>
<!DOCTYPE svg PUBLIC "-//W3C//DTD SVG 1.1//EN" "http://www.w3.org/Graphics/SVG/1.1/DTD/svg11.dtd">
<svg width="200pt" height="200pt" viewBox="0 0 200 200" version="1.1" xmlns="http://www.w3.org/2000/svg">
<g id="#eaeaeaea">
<path fill="#eaeaea" opacity="0.92" d=" M 151.36 30.38 C 161.83 29.49 172.52 30.26 183.08 29.99 C 186.38 29.60 189.44 32.74 189.02 36.04 C 188.97 44.06 189.05 52.08 188.98 60.10 C 188.85 63.04 185.87 65.40 182.98 65.02 C 173.31 64.99 163.63 64.99 153.96 65.02 C 150.65 65.45 147.54 62.32 147.98 59.02 C 148.01 51.32 147.99 43.62 147.99 35.92 C 147.74 33.58 149.21 31.28 151.36 30.38 M 152.05 31.24 C 150.18 31.99 148.81 33.92 149.03 35.98 C 148.98 43.67 148.98 51.37 149.03 59.06 C 148.71 61.78 151.20 64.28 153.92 63.97 C 163.66 64.02 173.39 64.02 183.12 63.97 C 185.83 64.25 188.29 61.76 187.97 59.06 C 188.02 51.34 188.02 43.63 187.97 35.91 C 188.25 33.21 185.71 30.73 183.02 31.03 C 172.70 31.12 162.35 30.71 152.05 31.24 Z" />
<path fill="#eaeaea" opacity="0.92" d=" M 151.34 68.38 C 152.83 67.74 154.52 68.07 156.09 67.97 C 165.06 68.03 174.03 67.99 183.01 67.99 C 186.31 67.57 189.41 70.66 189.02 73.96 C 188.97 81.99 189.04 90.02 188.99 98.05 C 188.89 100.95 185.98 103.36 183.10 103.02 C 173.41 103.00 163.72 102.99 154.03 103.02 C 151.12 103.41 148.12 101.02 148.01 98.07 C 147.95 90.04 148.03 82.01 147.98 73.98 C 147.73 71.62 149.18 69.29 151.34 68.38 M 152.03 69.25 C 150.16 70.01 148.80 71.94 149.03 73.99 C 148.98 81.69 148.98 89.39 149.03 97.08 C 148.72 99.81 151.23 102.28 153.95 101.97 C 163.67 102.02 173.38 102.02 183.10 101.97 C 185.81 102.26 188.30 99.76 187.97 97.05 C 188.01 89.36 188.02 81.68 187.97 74.00 C 188.28 71.27 185.75 68.72 183.02 69.03 C 172.69 69.13 162.33 68.69 152.03 69.25 Z" />
</g>
</svg>
