<?xml version="1.0" encoding="iso-8859-1"?>
<!-- Generator: Adobe Illustrator 19.0.0, SVG Export Plug-In . SVG Version: 6.00 Build 0)  -->
<svg version="1.1" id="Layer_1" xmlns="http://www.w3.org/2000/svg" xmlns:xlink="http://www.w3.org/1999/xlink" x="0px" y="0px"
	 viewBox="0 0 512 512" style="enable-background:new 0 0 512 512;" xml:space="preserve">
<g>
	<g>
		<path d="M256,0C114.902,0,0,114.124,0,256c0,141.519,114.579,256,256,256c141.624,0,256-114.668,256-256
			C512,114.614,397.569,0,256,0z M163.24,228.693L50.594,172.172c22.537-55.022,66.558-99.041,121.578-121.578l56.521,112.647
			C197.292,172.501,172.501,197.292,163.24,228.693z M256,318.578c-34.505,0-62.578-28.072-62.578-62.578
			s28.072-62.578,62.578-62.578s62.578,28.072,62.578,62.578S290.505,318.578,256,318.578z"/>
	</g>
</g>
<g>
</g>
<g>
</g>
<g>
</g>
<g>
</g>
<g>
</g>
<g>
</g>
<g>
</g>
<g>
</g>
<g>
</g>
<g>
</g>
<g>
</g>
<g>
</g>
<g>
</g>
<g>
</g>
<g>
</g>
</svg>
